<svg id="Calque_1" data-name="Calque 1" xmlns="http://www.w3.org/2000/svg" viewBox="0 0 1024.85 200"><defs><style>.cls-1{fill:#fff;}</style></defs><title>logo_flash</title><g id="FLASH"><path class="cls-1" d="M70.4,97.72,17.93,17.57S12.13,7.82,0,7.82V4.39H141.58V55.8h-3.69c-5.53-36.12-32.69-48-55.1-48l-39.55.26,49,75.67a43,43,0,0,0,6.06-21.62h4.22v75.4H98.34c0-19.77-13.71-35.59-36.12-35.59H50.62v72.5c0,17.14,14,19.25,25.84,19.25v3.43H0v-3.43c9.49,0,22.94-3.69,22.94-19.51V97.72Z"/><path class="cls-1" d="M346.18,139.91v57.21H197v-3.69c10.55,0,23.21-.27,23.21-18.72V27.06c0-18.19-14.51-19.24-23.21-19.24V4.39h70.66V8.08c-11.07,0-19,1.58-19,19.77V175c0,14,9.76,18.72,19.25,18.72,19.77,0,59.32.79,72.77-53.78Z"/><path class="cls-1" d="M487.24,38.66l-43,110.21c-14.77,36.65,10.54,44.82,22.93,44.82v3.43H401.55v-3.43c20.31,0,28.22-21.09,34.28-35.59,1.84-4.48,49.57-123.92,48.25-126.29-4.75-9.23-12.39-10-12.39-10A58.64,58.64,0,0,0,502.53,4.13s64.34,164.25,64.86,165.31c9.23,21.09,11.6,24.25,21.88,24.25v3.43h-66.7v-3.43c14,0,20.57-9.49,15.82-23.73Z"/><path class="cls-1" d="M1024.84,7.82c-8.17,0-20.56,3.16-20.56,19.51V174.44c0,16.35,12.39,19.25,20.56,19.25v3.43H957.09v-3.43c10.28,0,20.3-2.37,20.3-19V27.06c0-16.87-10-19.24-20.3-19.24V4.39h67.75ZM862.43,174.44V27.06c0-16.34-11.86-19.24-19.77-19.24V4.39h67.23V7.82c-10.28,0-20.56,2.37-20.56,19V78c0,7.38,2.63,12.39,6.59,15.29,7.64,5.54,20.56,8.44,30.58,9.75v1.85c-9.75,1-22.67,3.69-30.58,9.23-4,2.9-6.59,8.44-6.59,15.55v45.09c0,16.61,9.75,19,20,19v3.43H842.13v-3.43C850,193.69,862.43,190.79,862.43,174.44Z"/><path class="cls-1" d="M777.53,104a59.49,59.49,0,0,0-8.44-10.22c-11.6-11.08-25.31-18.19-39.28-25.84-12.13-6.59-24.26-15.29-28.21-29-3.43-11.34-.53-26.89,10-32.7,16.61-8.7,59.58,2.38,62.49,46.41h3.42V9.75c-10.41-4.29-43.1-15.89-71.71-5.62-14,5-26.1,18.45-26.63,32.95-.53,19.25,11.34,37.7,28.47,47.2,17.93,10.28,40.08,20.56,51.68,38a34.23,34.23,0,0,1,5,13.71l13.18,3.49,8.7,2.31C788.27,130,785.53,116.12,777.53,104Z"/><path class="cls-1" d="M734.56,118c-11.6-11.33-25.31-18.45-39.29-26.1-10.55-5.8-21.09-13.18-26.1-24-6.33-1.43-12.66-3.07-19-4.81-1.85-.51-3.69-1-5.54-1.52a48.91,48.91,0,0,0,5.54,22.84,59.05,59.05,0,0,0,22.93,24.09c18.2,10,40.08,20.57,51.68,37.7,10.55,15.82,4.75,43-13.44,49-17.41,5.8-56.17-7.11-58-48h-3.16V190.2c12.63,4.91,55.12,19,86.21.59C756.7,178.66,759.34,141.49,734.56,118Z"/></g></svg>