<svg id="Calque_1" data-name="Calque 1" xmlns="http://www.w3.org/2000/svg" xmlns:xlink="http://www.w3.org/1999/xlink" viewBox="0 0 96 96"><defs><style>.cls-1,.cls-10,.cls-11,.cls-12,.cls-13,.cls-14,.cls-15,.cls-16,.cls-17,.cls-18,.cls-19,.cls-2,.cls-20,.cls-21,.cls-22,.cls-23,.cls-24,.cls-25,.cls-26,.cls-27,.cls-28,.cls-29,.cls-3,.cls-30,.cls-31,.cls-32,.cls-33,.cls-4,.cls-5,.cls-6,.cls-7,.cls-8,.cls-9{fill:none;stroke-miterlimit:10;}.cls-1{stroke-width:0.03px;stroke:url(#Dégradé_sans_nom_247);}.cls-2{stroke-width:0.03px;stroke:url(#Dégradé_sans_nom_247-2);}.cls-3{stroke-width:0.04px;stroke:url(#Dégradé_sans_nom_247-3);}.cls-4{stroke-width:0.04px;stroke:url(#Dégradé_sans_nom_247-4);}.cls-5{stroke-width:0.04px;stroke:url(#Dégradé_sans_nom_247-5);}.cls-6{stroke-width:0.05px;stroke:url(#Dégradé_sans_nom_247-6);}.cls-7{stroke-width:0.05px;stroke:url(#Dégradé_sans_nom_247-7);}.cls-8{stroke-width:0.06px;stroke:url(#Dégradé_sans_nom_247-8);}.cls-9{stroke-width:0.06px;stroke:url(#Dégradé_sans_nom_247-9);}.cls-10{stroke-width:0.07px;stroke:url(#Dégradé_sans_nom_247-10);}.cls-11{stroke-width:0.07px;stroke:url(#Dégradé_sans_nom_247-11);}.cls-12{stroke-width:0.08px;stroke:url(#Dégradé_sans_nom_247-12);}.cls-13{stroke-width:0.09px;stroke:url(#Dégradé_sans_nom_247-13);}.cls-14{stroke-width:0.09px;stroke:url(#Dégradé_sans_nom_247-14);}.cls-15{stroke-width:0.1px;stroke:url(#Dégradé_sans_nom_247-15);}.cls-16{stroke-width:0.11px;stroke:url(#Dégradé_sans_nom_247-16);}.cls-17{stroke-width:0.12px;stroke:url(#Dégradé_sans_nom_247-17);}.cls-18{stroke-width:0.13px;stroke:url(#Dégradé_sans_nom_247-18);}.cls-19{stroke-width:0.14px;stroke:url(#Dégradé_sans_nom_247-19);}.cls-20{stroke-width:0.15px;stroke:url(#Dégradé_sans_nom_247-20);}.cls-21{stroke-width:0.17px;stroke:url(#Dégradé_sans_nom_247-21);}.cls-22{stroke-width:0.18px;stroke:url(#Dégradé_sans_nom_247-22);}.cls-23{stroke-width:0.2px;stroke:url(#Dégradé_sans_nom_247-23);}.cls-24{stroke-width:0.21px;stroke:url(#Dégradé_sans_nom_247-24);}.cls-25{stroke-width:0.23px;stroke:url(#Dégradé_sans_nom_247-25);}.cls-26{stroke-width:0.25px;stroke:url(#Dégradé_sans_nom_247-26);}.cls-27{stroke-width:0.28px;stroke:url(#Dégradé_sans_nom_247-27);}.cls-28{stroke-width:0.3px;stroke:url(#Dégradé_sans_nom_247-28);}.cls-29{stroke-width:0.33px;stroke:url(#Dégradé_sans_nom_247-29);}.cls-30{stroke-width:0.35px;stroke:url(#Dégradé_sans_nom_247-30);}.cls-31{stroke-width:0.38px;stroke:url(#Dégradé_sans_nom_247-31);}.cls-32{stroke-width:0.42px;stroke:url(#Dégradé_sans_nom_247-32);}.cls-33{stroke-width:0.45px;stroke:url(#Dégradé_sans_nom_247-33);}.cls-34{fill:#fff;}</style><linearGradient id="Dégradé_sans_nom_247" x1="1854.95" y1="-579.11" x2="1941.39" y2="-579.11" gradientTransform="translate(169.53 112.71) rotate(-135) scale(0.07)" gradientUnits="userSpaceOnUse"><stop offset="0" stop-color="#3795a1"/><stop offset="1" stop-color="#3795a1" stop-opacity="0"/></linearGradient><linearGradient id="Dégradé_sans_nom_247-2" x1="1660.8" y1="-664.9" x2="1747.24" y2="-664.9" gradientTransform="translate(174.32 103.41) rotate(-135) scale(0.08)" xlink:href="#Dégradé_sans_nom_247"/><linearGradient id="Dégradé_sans_nom_247-3" x1="1475.98" y1="-727.96" x2="1562.42" y2="-727.96" gradientTransform="translate(178.24 93.86) rotate(-135) scale(0.08)" xlink:href="#Dégradé_sans_nom_247"/><linearGradient id="Dégradé_sans_nom_247-4" x1="1301.53" y1="-770.93" x2="1387.98" y2="-770.93" gradientTransform="translate(181.29 84.15) rotate(-135) scale(0.09)" xlink:href="#Dégradé_sans_nom_247"/><linearGradient id="Dégradé_sans_nom_247-5" x1="1138.21" y1="-796.33" x2="1224.66" y2="-796.33" gradientTransform="translate(183.43 74.37) rotate(-135) scale(0.1)" xlink:href="#Dégradé_sans_nom_247"/><linearGradient id="Dégradé_sans_nom_247-6" x1="986.48" y1="-806.51" x2="1072.94" y2="-806.51" gradientTransform="translate(184.67 64.61) rotate(-135) scale(0.11)" xlink:href="#Dégradé_sans_nom_247"/><linearGradient id="Dégradé_sans_nom_247-7" x1="846.61" y1="-803.67" x2="933.08" y2="-803.67" gradientTransform="translate(41.03 185.01) rotate(-45) scale(0.11)" xlink:href="#Dégradé_sans_nom_247"/><linearGradient id="Dégradé_sans_nom_247-8" x1="718.64" y1="-789.86" x2="805.12" y2="-789.86" gradientTransform="translate(50.46 184.46) rotate(-45) scale(0.12)" xlink:href="#Dégradé_sans_nom_247"/><linearGradient id="Dégradé_sans_nom_247-9" x1="602.47" y1="-766.94" x2="688.95" y2="-766.94" gradientTransform="translate(59.59 183.03) rotate(-45) scale(0.14)" xlink:href="#Dégradé_sans_nom_247"/><linearGradient id="Dégradé_sans_nom_247-10" x1="497.83" y1="-736.62" x2="584.32" y2="-736.62" gradientTransform="translate(68.32 180.75) rotate(-45) scale(0.15)" xlink:href="#Dégradé_sans_nom_247"/><linearGradient id="Dégradé_sans_nom_247-11" x1="404.37" y1="-700.44" x2="490.86" y2="-700.44" gradientTransform="translate(76.55 177.65) rotate(-45) scale(0.16)" xlink:href="#Dégradé_sans_nom_247"/><linearGradient id="Dégradé_sans_nom_247-12" x1="321.6" y1="-659.79" x2="408.11" y2="-659.79" gradientTransform="translate(84.2 173.78) rotate(-45) scale(0.17)" xlink:href="#Dégradé_sans_nom_247"/><linearGradient id="Dégradé_sans_nom_247-13" x1="249.01" y1="-615.89" x2="335.52" y2="-615.89" gradientTransform="translate(91.18 169.17) rotate(-45) scale(0.19)" xlink:href="#Dégradé_sans_nom_247"/><linearGradient id="Dégradé_sans_nom_247-14" x1="186" y1="-569.84" x2="272.52" y2="-569.84" gradientTransform="translate(97.39 163.89) rotate(-45) scale(0.21)" xlink:href="#Dégradé_sans_nom_247"/><linearGradient id="Dégradé_sans_nom_247-15" x1="131.94" y1="-522.59" x2="218.47" y2="-522.59" gradientTransform="matrix(0.16, -0.16, 0.16, 0.16, 102.76, 158)" xlink:href="#Dégradé_sans_nom_247"/><linearGradient id="Dégradé_sans_nom_247-16" x1="86.18" y1="-474.94" x2="172.73" y2="-474.94" gradientTransform="translate(107.2 151.56) rotate(-45) scale(0.24)" xlink:href="#Dégradé_sans_nom_247"/><linearGradient id="Dégradé_sans_nom_247-17" x1="48.06" y1="-427.61" x2="134.62" y2="-427.61" gradientTransform="translate(110.63 144.65) rotate(-45) scale(0.26)" xlink:href="#Dégradé_sans_nom_247"/><linearGradient id="Dégradé_sans_nom_247-18" x1="16.92" y1="-381.17" x2="103.5" y2="-381.17" gradientTransform="translate(112.98 137.35) rotate(-45) scale(0.29)" xlink:href="#Dégradé_sans_nom_247"/><linearGradient id="Dégradé_sans_nom_247-19" x1="-7.9" y1="-336.11" x2="78.7" y2="-336.11" gradientTransform="matrix(0.22, -0.22, 0.22, 0.22, 114.17, 129.75)" xlink:href="#Dégradé_sans_nom_247"/><linearGradient id="Dégradé_sans_nom_247-20" x1="-27.03" y1="-292.83" x2="59.58" y2="-292.83" gradientTransform="translate(114.15 121.93) rotate(-45) scale(0.34)" xlink:href="#Dégradé_sans_nom_247"/><linearGradient id="Dégradé_sans_nom_247-21" x1="-41.1" y1="-251.63" x2="45.53" y2="-251.63" gradientTransform="translate(112.84 113.99) rotate(-45) scale(0.37)" xlink:href="#Dégradé_sans_nom_247"/><linearGradient id="Dégradé_sans_nom_247-22" x1="-50.69" y1="-212.74" x2="35.96" y2="-212.74" gradientTransform="translate(110.2 106.04) rotate(-45) scale(0.4)" xlink:href="#Dégradé_sans_nom_247"/><linearGradient id="Dégradé_sans_nom_247-23" x1="-56.36" y1="-176.33" x2="30.31" y2="-176.33" gradientTransform="matrix(0.31, -0.31, 0.31, 0.31, 106.16, 98.16)" xlink:href="#Dégradé_sans_nom_247"/><linearGradient id="Dégradé_sans_nom_247-24" x1="-58.64" y1="-142.5" x2="28.05" y2="-142.5" gradientTransform="matrix(0.33, -0.33, 0.33, 0.33, 100.68, 90.47)" xlink:href="#Dégradé_sans_nom_247"/><linearGradient id="Dégradé_sans_nom_247-25" x1="-58.03" y1="-111.32" x2="28.7" y2="-111.32" gradientTransform="translate(12.92 93.72) rotate(45) scale(0.51)" xlink:href="#Dégradé_sans_nom_247"/><linearGradient id="Dégradé_sans_nom_247-26" x1="-54.96" y1="-82.79" x2="31.79" y2="-82.79" gradientTransform="translate(19.91 85.23) rotate(45) scale(0.56)" xlink:href="#Dégradé_sans_nom_247"/><linearGradient id="Dégradé_sans_nom_247-27" x1="-49.87" y1="-56.89" x2="36.92" y2="-56.89" gradientTransform="translate(26.38 75.17) rotate(45) scale(0.61)" xlink:href="#Dégradé_sans_nom_247"/><linearGradient id="Dégradé_sans_nom_247-28" x1="-43.12" y1="-33.57" x2="43.69" y2="-33.57" gradientTransform="translate(32.22 63.51) rotate(45) scale(0.66)" xlink:href="#Dégradé_sans_nom_247"/><linearGradient id="Dégradé_sans_nom_247-29" x1="-35.08" y1="-12.73" x2="51.78" y2="-12.73" gradientTransform="translate(37.32 50.22) rotate(45) scale(0.72)" xlink:href="#Dégradé_sans_nom_247"/><linearGradient id="Dégradé_sans_nom_247-30" x1="-26.03" y1="5.72" x2="60.86" y2="5.72" gradientTransform="matrix(0.55, 0.55, -0.55, 0.55, 41.56, 35.26)" xlink:href="#Dégradé_sans_nom_247"/><linearGradient id="Dégradé_sans_nom_247-31" x1="-16.27" y1="21.9" x2="70.67" y2="21.9" gradientTransform="translate(44.83 18.61) rotate(45) scale(0.85)" xlink:href="#Dégradé_sans_nom_247"/><linearGradient id="Dégradé_sans_nom_247-32" x1="-6.03" y1="35.95" x2="80.96" y2="35.95" gradientTransform="translate(47.01 0.24) rotate(45) scale(0.92)" xlink:href="#Dégradé_sans_nom_247"/><linearGradient id="Dégradé_sans_nom_247-33" x1="4.48" y1="48" x2="91.52" y2="48" gradientTransform="translate(48 -19.88) rotate(45)" xlink:href="#Dégradé_sans_nom_247"/></defs><rect class="cls-1" x="45.88" y="45.88" width="4.24" height="4.24" transform="translate(-15.79 24.78) rotate(-25)"/><rect class="cls-2" x="45.7" y="45.7" width="4.61" height="4.61" transform="translate(-13.52 19.31) rotate(-20)"/><rect class="cls-3" x="45.5" y="45.5" width="5.01" height="5.01" transform="translate(-10.79 14.06) rotate(-15)"/><rect class="cls-4" x="45.28" y="45.28" width="5.44" height="5.44" transform="translate(-7.61 9.06) rotate(-10)"/><rect class="cls-5" x="45.04" y="45.04" width="5.92" height="5.92" transform="translate(-4 4.37) rotate(-5)"/><rect class="cls-6" x="44.78" y="44.78" width="6.43" height="6.43"/><rect class="cls-7" x="44.51" y="44.51" width="6.99" height="6.99" transform="translate(-4 91.63) rotate(-85)"/><rect class="cls-8" x="44.2" y="44.2" width="7.6" height="7.6" transform="translate(-7.61 86.94) rotate(-80)"/><rect class="cls-9" x="43.87" y="43.87" width="8.26" height="8.26" transform="translate(-10.79 81.94) rotate(-75)"/><rect class="cls-10" x="43.51" y="43.51" width="8.98" height="8.98" transform="translate(-13.52 76.69) rotate(-70)"/><rect class="cls-11" x="43.12" y="43.12" width="9.76" height="9.76" transform="translate(-15.79 71.22) rotate(-65)"/><rect class="cls-12" x="42.7" y="42.7" width="10.6" height="10.6" transform="translate(-17.57 65.57) rotate(-60)"/><rect class="cls-13" x="42.24" y="42.24" width="11.53" height="11.53" transform="translate(-18.85 59.79) rotate(-55)"/><rect class="cls-14" x="41.74" y="41.74" width="12.53" height="12.53" transform="translate(-19.62 53.92) rotate(-50)"/><rect class="cls-15" x="41.19" y="41.19" width="13.62" height="13.62" transform="translate(-19.88 48) rotate(-45)"/><rect class="cls-16" x="40.6" y="40.6" width="14.8" height="14.8" transform="translate(-19.62 42.08) rotate(-40)"/><rect class="cls-17" x="39.95" y="39.95" width="16.09" height="16.09" transform="translate(-18.85 36.21) rotate(-35)"/><rect class="cls-18" x="39.26" y="39.26" width="17.49" height="17.49" transform="translate(-17.57 30.43) rotate(-30)"/><rect class="cls-19" x="38.49" y="38.49" width="19.01" height="19.01" transform="translate(-15.79 24.78) rotate(-25)"/><rect class="cls-20" x="37.67" y="37.67" width="20.66" height="20.66" transform="translate(-13.52 19.31) rotate(-20)"/><rect class="cls-21" x="36.77" y="36.77" width="22.46" height="22.46" transform="translate(-10.79 14.06) rotate(-15)"/><rect class="cls-22" x="35.79" y="35.79" width="24.41" height="24.41" transform="translate(-7.61 9.06) rotate(-10)"/><rect class="cls-23" x="34.73" y="34.73" width="26.54" height="26.54" transform="translate(-4 4.37) rotate(-5)"/><rect class="cls-24" x="33.58" y="33.58" width="28.84" height="28.84"/><rect class="cls-25" x="32.32" y="32.32" width="31.35" height="31.35" transform="translate(-4 91.63) rotate(-85)"/><rect class="cls-26" x="30.96" y="30.96" width="34.08" height="34.08" transform="translate(-7.61 86.94) rotate(-80)"/><rect class="cls-27" x="29.48" y="29.48" width="37.04" height="37.04" transform="translate(-10.79 81.94) rotate(-75)"/><rect class="cls-28" x="27.87" y="27.87" width="40.26" height="40.26" transform="translate(-13.52 76.69) rotate(-70)"/><rect class="cls-29" x="26.12" y="26.12" width="43.76" height="43.76" transform="translate(-15.79 71.22) rotate(-65)"/><rect class="cls-30" x="24.22" y="24.22" width="47.57" height="47.57" transform="translate(-17.57 65.57) rotate(-60)"/><rect class="cls-31" x="22.15" y="22.15" width="51.71" height="51.71" transform="translate(-18.85 59.79) rotate(-55)"/><rect class="cls-32" x="19.9" y="19.9" width="56.2" height="56.2" transform="translate(-19.62 53.92) rotate(-50)"/><rect class="cls-33" x="17.46" y="17.46" width="61.09" height="61.09" transform="translate(-19.88 48) rotate(-45)"/><path class="cls-34" d="M28,60.89H21.87a2.87,2.87,0,0,0,3,2.83,2.87,2.87,0,0,0,2.27-1l.4.45a3.43,3.43,0,0,1-2.69,1.16,3.5,3.5,0,0,1-3.67-3.62,3.41,3.41,0,1,1,6.81,0S28,60.82,28,60.89Zm-6.1-.54h5.45a2.73,2.73,0,0,0-5.45,0Z"/><path class="cls-34" d="M34.44,64.28,32,61.1l-2.44,3.18h-.77l2.82-3.67-2.67-3.45h.77l2.29,3,2.29-3h.77l-2.67,3.45,2.86,3.67Z"/><path class="cls-34" d="M44.08,60.72a3.44,3.44,0,0,1-3.51,3.62,3.19,3.19,0,0,1-2.89-1.68v4.27H37V57.16h.66v1.68a3.19,3.19,0,0,1,2.92-1.73A3.45,3.45,0,0,1,44.08,60.72Zm-.68,0a2.87,2.87,0,1,0-2.87,3A2.84,2.84,0,0,0,43.4,60.72Z"/><path class="cls-34" d="M46.2,54.17h.68V64.28H46.2Z"/><path class="cls-34" d="M49,60.72a3.56,3.56,0,1,1,3.56,3.62A3.46,3.46,0,0,1,49,60.72Zm6.42,0a2.86,2.86,0,1,0-2.86,3A2.82,2.82,0,0,0,55.4,60.72Z"/><path class="cls-34" d="M61.58,57.11v.67l-.16,0c-1.58,0-2.53,1.05-2.53,2.81v3.71h-.68V57.16h.66v1.56A2.69,2.69,0,0,1,61.58,57.11Z"/><path class="cls-34" d="M69.41,60.89H63.29a2.85,2.85,0,0,0,3,2.83,2.9,2.9,0,0,0,2.28-1l.39.45a3.43,3.43,0,0,1-2.69,1.16,3.49,3.49,0,0,1-3.66-3.62A3.4,3.4,0,0,1,66,57.11a3.37,3.37,0,0,1,3.39,3.59S69.41,60.82,69.41,60.89Zm-6.11-.54h5.45a2.73,2.73,0,0,0-5.45,0Z"/><path class="cls-34" d="M74.9,57.11v.67l-.16,0c-1.58,0-2.52,1.05-2.52,2.81v3.71h-.68V57.16h.65v1.56A2.7,2.7,0,0,1,74.9,57.11Z"/><g id="OZBlock"><path class="cls-34" d="M0,43c0-4.72,3.68-8.22,8.71-8.22s8.7,3.47,8.7,8.22-3.7,8.23-8.7,8.23S0,47.69,0,43Zm13.68,0a4.85,4.85,0,0,0-5-5.09,4.85,4.85,0,0,0-5,5.09,4.85,4.85,0,0,0,5,5.1A4.85,4.85,0,0,0,13.68,43Z"/><path class="cls-34" d="M32.91,47.92v3H19V48.53L27.73,38H19.18V35H32.57V37.4L23.86,47.92Z"/><path class="cls-34" d="M49.11,46.71c0,2.69-2,4.21-5.86,4.21H36.16V35H42.8c3.41,0,5.47,1.43,5.47,4.07a3.63,3.63,0,0,1-2.66,3.63C47.86,43.15,49.11,44.51,49.11,46.71ZM37.32,36v6.34h5.43c2.75,0,4.34-1.07,4.34-3.18S45.5,36,42.75,36ZM48,46.62c0-2.27-1.65-3.27-4.7-3.27H37.32v6.57h5.93C46.3,49.92,48,48.92,48,46.62Z"/><path class="cls-34" d="M52.89,34.05H54V50.92H52.89Z"/><path class="cls-34" d="M57.52,45a5.94,5.94,0,1,1,11.87,0,5.94,5.94,0,1,1-11.87,0Zm10.71,0a4.78,4.78,0,1,0-9.55,0,4.78,4.78,0,1,0,9.55,0Z"/><path class="cls-34" d="M71.61,45a5.79,5.79,0,0,1,6-6,5.19,5.19,0,0,1,4.5,2.19l-.84.61A4.33,4.33,0,0,0,77.61,40a4.71,4.71,0,0,0-4.84,5,4.71,4.71,0,0,0,4.84,5,4.32,4.32,0,0,0,3.66-1.78l.84.62A5.25,5.25,0,0,1,77.61,51,5.8,5.8,0,0,1,71.61,45Z"/><path class="cls-34" d="M89.54,44.58,86.45,47.4v3.52H85.32V34.05h1.13V46l7.6-6.94H95.5l-5.11,4.8L96,50.92H94.59Z"/></g></svg>