<?xml version="1.0" encoding="UTF-8"?><svg id="Objects" xmlns="http://www.w3.org/2000/svg" xmlns:xlink="http://www.w3.org/1999/xlink" viewBox="0 0 198.9 251.69"><defs><style>.cls-1{fill:url(#New_Gradient_Swatch_31-5);}.cls-2{fill:url(#New_Gradient_Swatch_31-6);}.cls-3{fill:url(#New_Gradient_Swatch_31-7);}.cls-4{fill:url(#New_Gradient_Swatch_31-9);}.cls-5{fill:url(#New_Gradient_Swatch_31-2);}.cls-6{fill:url(#New_Gradient_Swatch_31-8);}.cls-7{fill:url(#New_Gradient_Swatch_31-3);}.cls-8{fill:url(#New_Gradient_Swatch_31-4);}.cls-9{fill:url(#New_Gradient_Swatch_31);}.cls-10{fill:url(#New_Gradient_Swatch_31-67);}.cls-11{fill:url(#New_Gradient_Swatch_31-56);}.cls-12{fill:url(#New_Gradient_Swatch_31-57);}.cls-13{fill:url(#New_Gradient_Swatch_31-53);}.cls-14{fill:url(#New_Gradient_Swatch_31-58);}.cls-15{fill:url(#New_Gradient_Swatch_31-52);}.cls-16{fill:url(#New_Gradient_Swatch_31-59);}.cls-17{fill:url(#New_Gradient_Swatch_31-55);}.cls-18{fill:url(#New_Gradient_Swatch_31-54);}.cls-19{fill:url(#New_Gradient_Swatch_31-51);}.cls-20{fill:url(#New_Gradient_Swatch_31-50);}.cls-21{fill:url(#New_Gradient_Swatch_31-66);}.cls-22{fill:url(#New_Gradient_Swatch_31-69);}.cls-23{fill:url(#New_Gradient_Swatch_31-62);}.cls-24{fill:url(#New_Gradient_Swatch_31-68);}.cls-25{fill:url(#New_Gradient_Swatch_31-65);}.cls-26{fill:url(#New_Gradient_Swatch_31-63);}.cls-27{fill:url(#New_Gradient_Swatch_31-64);}.cls-28{fill:url(#New_Gradient_Swatch_31-70);}.cls-29{fill:url(#New_Gradient_Swatch_31-82);}.cls-30{fill:url(#New_Gradient_Swatch_31-81);}.cls-31{fill:url(#New_Gradient_Swatch_31-87);}.cls-32{fill:url(#New_Gradient_Swatch_31-60);}.cls-33{fill:url(#New_Gradient_Swatch_31-61);}.cls-34{fill:url(#New_Gradient_Swatch_31-46);}.cls-35{fill:url(#New_Gradient_Swatch_31-42);}.cls-36{fill:url(#New_Gradient_Swatch_31-41);}.cls-37{fill:url(#New_Gradient_Swatch_31-40);}.cls-38{fill:url(#New_Gradient_Swatch_31-43);}.cls-39{fill:url(#New_Gradient_Swatch_31-44);}.cls-40{fill:url(#New_Gradient_Swatch_31-45);}.cls-41{fill:url(#New_Gradient_Swatch_31-47);}.cls-42{fill:url(#New_Gradient_Swatch_31-48);}.cls-43{fill:url(#New_Gradient_Swatch_31-49);}.cls-44{fill:url(#New_Gradient_Swatch_31-83);}.cls-45{fill:url(#New_Gradient_Swatch_31-84);}.cls-46{fill:url(#New_Gradient_Swatch_31-80);}.cls-47{fill:url(#New_Gradient_Swatch_31-35);}.cls-48{fill:url(#New_Gradient_Swatch_31-32);}.cls-49{fill:url(#New_Gradient_Swatch_31-33);}.cls-50{fill:url(#New_Gradient_Swatch_31-38);}.cls-51{fill:url(#New_Gradient_Swatch_31-36);}.cls-52{fill:url(#New_Gradient_Swatch_31-34);}.cls-53{fill:url(#New_Gradient_Swatch_31-37);}.cls-54{fill:url(#New_Gradient_Swatch_31-39);}.cls-55{fill:url(#New_Gradient_Swatch_31-31);}.cls-56{fill:url(#New_Gradient_Swatch_31-30);}.cls-57{fill:url(#New_Gradient_Swatch_31-73);}.cls-58{fill:url(#New_Gradient_Swatch_31-79);}.cls-59{fill:url(#New_Gradient_Swatch_31-85);}.cls-60{fill:url(#New_Gradient_Swatch_31-86);}.cls-61{fill:url(#New_Gradient_Swatch_31-29);}.cls-62{fill:url(#New_Gradient_Swatch_31-10);}.cls-63{fill:url(#New_Gradient_Swatch_31-11);}.cls-64{fill:url(#New_Gradient_Swatch_31-28);}.cls-65{fill:url(#New_Gradient_Swatch_31-25);}.cls-66{fill:url(#New_Gradient_Swatch_31-12);}.cls-67{fill:url(#New_Gradient_Swatch_31-72);}.cls-68{fill:url(#New_Gradient_Swatch_31-77);}.cls-69{fill:url(#New_Gradient_Swatch_31-74);}.cls-70{fill:url(#New_Gradient_Swatch_31-71);}.cls-71{fill:url(#New_Gradient_Swatch_31-78);}.cls-72{fill:url(#New_Gradient_Swatch_31-75);}.cls-73{fill:url(#New_Gradient_Swatch_31-76);}.cls-74{fill:url(#New_Gradient_Swatch_31-18);}.cls-75{fill:url(#New_Gradient_Swatch_31-19);}.cls-76{fill:url(#New_Gradient_Swatch_31-16);}.cls-77{fill:url(#New_Gradient_Swatch_31-17);}.cls-78{fill:url(#New_Gradient_Swatch_31-14);}.cls-79{fill:url(#New_Gradient_Swatch_31-15);}.cls-80{fill:url(#New_Gradient_Swatch_31-13);}.cls-81{fill:url(#New_Gradient_Swatch_31-27);}.cls-82{fill:url(#New_Gradient_Swatch_31-23);}.cls-83{fill:url(#New_Gradient_Swatch_31-24);}.cls-84{fill:url(#New_Gradient_Swatch_31-26);}.cls-85{fill:url(#New_Gradient_Swatch_31-20);}.cls-86{fill:url(#New_Gradient_Swatch_31-22);}.cls-87{fill:url(#New_Gradient_Swatch_31-21);}</style><linearGradient id="New_Gradient_Swatch_31" x1="3.32" y1="64.62" x2="113.18" y2="240.03" gradientUnits="userSpaceOnUse"><stop offset="0" stop-color="#21ff99"/><stop offset="1" stop-color="#008cff"/></linearGradient><linearGradient id="New_Gradient_Swatch_31-2" x1="85.24" y1="13.31" x2="195.1" y2="188.73" xlink:href="#New_Gradient_Swatch_31"/><linearGradient id="New_Gradient_Swatch_31-3" x1="46.01" y1="37.88" x2="155.87" y2="213.3" xlink:href="#New_Gradient_Swatch_31"/><linearGradient id="New_Gradient_Swatch_31-4" x1="55.79" y1="31.76" x2="165.64" y2="207.18" xlink:href="#New_Gradient_Swatch_31"/><linearGradient id="New_Gradient_Swatch_31-5" x1="30.65" y1="47.5" x2="140.51" y2="222.92" xlink:href="#New_Gradient_Swatch_31"/><linearGradient id="New_Gradient_Swatch_31-6" x1="50.61" y1="35" x2="160.46" y2="210.42" xlink:href="#New_Gradient_Swatch_31"/><linearGradient id="New_Gradient_Swatch_31-7" x1="35.86" y1="44.24" x2="145.72" y2="219.65" xlink:href="#New_Gradient_Swatch_31"/><linearGradient id="New_Gradient_Swatch_31-8" x1="27.81" y1="49.28" x2="137.67" y2="224.7" xlink:href="#New_Gradient_Swatch_31"/><linearGradient id="New_Gradient_Swatch_31-9" x1="20.62" y1="53.78" x2="130.48" y2="229.2" xlink:href="#New_Gradient_Swatch_31"/><linearGradient id="New_Gradient_Swatch_31-10" x1="22.29" y1="52.74" x2="132.15" y2="228.15" xlink:href="#New_Gradient_Swatch_31"/><linearGradient id="New_Gradient_Swatch_31-11" x1="21.74" y1="53.09" x2="131.59" y2="228.5" xlink:href="#New_Gradient_Swatch_31"/><linearGradient id="New_Gradient_Swatch_31-12" x1="24.22" y1="51.53" x2="134.08" y2="226.94" xlink:href="#New_Gradient_Swatch_31"/><linearGradient id="New_Gradient_Swatch_31-13" x1="24.11" y1="51.6" x2="133.97" y2="227.01" xlink:href="#New_Gradient_Swatch_31"/><linearGradient id="New_Gradient_Swatch_31-14" x1="20.26" y1="54.01" x2="130.11" y2="229.43" xlink:href="#New_Gradient_Swatch_31"/><linearGradient id="New_Gradient_Swatch_31-15" x1="28.35" y1="48.94" x2="138.2" y2="224.36" xlink:href="#New_Gradient_Swatch_31"/><linearGradient id="New_Gradient_Swatch_31-16" x1="35" y1="44.78" x2="144.86" y2="220.19" xlink:href="#New_Gradient_Swatch_31"/><linearGradient id="New_Gradient_Swatch_31-17" x1="38.8" y1="42.4" x2="148.66" y2="217.81" xlink:href="#New_Gradient_Swatch_31"/><linearGradient id="New_Gradient_Swatch_31-18" x1="34.97" y1="44.8" x2="144.83" y2="220.21" xlink:href="#New_Gradient_Swatch_31"/><linearGradient id="New_Gradient_Swatch_31-19" x1="39.44" y1="42" x2="149.3" y2="217.41" xlink:href="#New_Gradient_Swatch_31"/><linearGradient id="New_Gradient_Swatch_31-20" x1="29.63" y1="48.14" x2="139.48" y2="223.56" xlink:href="#New_Gradient_Swatch_31"/><linearGradient id="New_Gradient_Swatch_31-21" x1="38.77" y1="42.42" x2="148.63" y2="217.83" xlink:href="#New_Gradient_Swatch_31"/><linearGradient id="New_Gradient_Swatch_31-22" x1="40.06" y1="41.61" x2="149.92" y2="217.02" xlink:href="#New_Gradient_Swatch_31"/><linearGradient id="New_Gradient_Swatch_31-23" x1="38.63" y1="42.5" x2="148.49" y2="217.92" xlink:href="#New_Gradient_Swatch_31"/><linearGradient id="New_Gradient_Swatch_31-24" x1="38.24" y1="42.75" x2="148.09" y2="218.17" xlink:href="#New_Gradient_Swatch_31"/><linearGradient id="New_Gradient_Swatch_31-25" x1="38.6" y1="42.52" x2="148.46" y2="217.94" xlink:href="#New_Gradient_Swatch_31"/><linearGradient id="New_Gradient_Swatch_31-26" x1="27.06" y1="49.75" x2="136.92" y2="225.16" xlink:href="#New_Gradient_Swatch_31"/><linearGradient id="New_Gradient_Swatch_31-27" x1="30.17" y1="47.8" x2="140.03" y2="223.22" xlink:href="#New_Gradient_Swatch_31"/><linearGradient id="New_Gradient_Swatch_31-28" x1="30.77" y1="47.43" x2="140.63" y2="222.84" xlink:href="#New_Gradient_Swatch_31"/><linearGradient id="New_Gradient_Swatch_31-29" x1="33.45" y1="45.75" x2="143.31" y2="221.16" xlink:href="#New_Gradient_Swatch_31"/><linearGradient id="New_Gradient_Swatch_31-30" x1="24.19" y1="51.55" x2="134.05" y2="226.96" xlink:href="#New_Gradient_Swatch_31"/><linearGradient id="New_Gradient_Swatch_31-31" x1="25.81" y1="50.53" x2="135.66" y2="225.95" xlink:href="#New_Gradient_Swatch_31"/><linearGradient id="New_Gradient_Swatch_31-32" x1="27.57" y1="49.43" x2="137.43" y2="224.84" xlink:href="#New_Gradient_Swatch_31"/><linearGradient id="New_Gradient_Swatch_31-33" x1="24.24" y1="51.52" x2="134.09" y2="226.93" xlink:href="#New_Gradient_Swatch_31"/><linearGradient id="New_Gradient_Swatch_31-34" x1="30.87" y1="47.37" x2="140.72" y2="222.78" xlink:href="#New_Gradient_Swatch_31"/><linearGradient id="New_Gradient_Swatch_31-35" x1="29.53" y1="48.2" x2="139.39" y2="223.62" xlink:href="#New_Gradient_Swatch_31"/><linearGradient id="New_Gradient_Swatch_31-36" x1="29.2" y1="48.41" x2="139.05" y2="223.83" xlink:href="#New_Gradient_Swatch_31"/><linearGradient id="New_Gradient_Swatch_31-37" x1="30.78" y1="47.42" x2="140.63" y2="222.84" xlink:href="#New_Gradient_Swatch_31"/><linearGradient id="New_Gradient_Swatch_31-38" x1="26.83" y1="49.89" x2="136.69" y2="225.31" xlink:href="#New_Gradient_Swatch_31"/><linearGradient id="New_Gradient_Swatch_31-39" x1="27.35" y1="49.57" x2="137.21" y2="224.98" xlink:href="#New_Gradient_Swatch_31"/><linearGradient id="New_Gradient_Swatch_31-40" x1="24.67" y1="51.25" x2="134.53" y2="226.66" xlink:href="#New_Gradient_Swatch_31"/><linearGradient id="New_Gradient_Swatch_31-41" x1="33.39" y1="45.79" x2="143.25" y2="221.2" xlink:href="#New_Gradient_Swatch_31"/><linearGradient id="New_Gradient_Swatch_31-42" x1="25.3" y1="50.85" x2="135.16" y2="226.27" xlink:href="#New_Gradient_Swatch_31"/><linearGradient id="New_Gradient_Swatch_31-43" x1="32.01" y1="46.65" x2="141.87" y2="222.06" xlink:href="#New_Gradient_Swatch_31"/><linearGradient id="New_Gradient_Swatch_31-44" x1="30.91" y1="47.34" x2="140.76" y2="222.76" xlink:href="#New_Gradient_Swatch_31"/><linearGradient id="New_Gradient_Swatch_31-45" x1="29.58" y1="48.17" x2="139.44" y2="223.59" xlink:href="#New_Gradient_Swatch_31"/><linearGradient id="New_Gradient_Swatch_31-46" x1="34.05" y1="45.37" x2="143.91" y2="220.79" xlink:href="#New_Gradient_Swatch_31"/><linearGradient id="New_Gradient_Swatch_31-47" x1="35.39" y1="44.54" x2="145.24" y2="219.95" xlink:href="#New_Gradient_Swatch_31"/><linearGradient id="New_Gradient_Swatch_31-48" x1="47.58" y1="36.9" x2="157.43" y2="212.32" xlink:href="#New_Gradient_Swatch_31"/><linearGradient id="New_Gradient_Swatch_31-49" x1="49.28" y1="35.84" x2="159.13" y2="211.25" xlink:href="#New_Gradient_Swatch_31"/><linearGradient id="New_Gradient_Swatch_31-50" x1="47.72" y1="36.82" x2="157.57" y2="212.23" xlink:href="#New_Gradient_Swatch_31"/><linearGradient id="New_Gradient_Swatch_31-51" x1="49.18" y1="35.9" x2="159.03" y2="211.31" xlink:href="#New_Gradient_Swatch_31"/><linearGradient id="New_Gradient_Swatch_31-52" x1="45.64" y1="38.11" x2="155.5" y2="213.53" xlink:href="#New_Gradient_Swatch_31"/><linearGradient id="New_Gradient_Swatch_31-53" x1="46.06" y1="37.85" x2="155.92" y2="213.27" xlink:href="#New_Gradient_Swatch_31"/><linearGradient id="New_Gradient_Swatch_31-54" x1="48.47" y1="36.35" x2="158.32" y2="211.76" xlink:href="#New_Gradient_Swatch_31"/><linearGradient id="New_Gradient_Swatch_31-55" x1="44.03" y1="39.12" x2="153.88" y2="214.54" xlink:href="#New_Gradient_Swatch_31"/><linearGradient id="New_Gradient_Swatch_31-56" x1="42.98" y1="39.78" x2="152.84" y2="215.2" xlink:href="#New_Gradient_Swatch_31"/><linearGradient id="New_Gradient_Swatch_31-57" x1="40.53" y1="41.32" x2="150.38" y2="216.73" xlink:href="#New_Gradient_Swatch_31"/><linearGradient id="New_Gradient_Swatch_31-58" x1="43.64" y1="39.37" x2="153.5" y2="214.78" xlink:href="#New_Gradient_Swatch_31"/><linearGradient id="New_Gradient_Swatch_31-59" x1="38.28" y1="42.72" x2="148.14" y2="218.14" xlink:href="#New_Gradient_Swatch_31"/><linearGradient id="New_Gradient_Swatch_31-60" x1="45.42" y1="38.25" x2="155.27" y2="213.67" xlink:href="#New_Gradient_Swatch_31"/><linearGradient id="New_Gradient_Swatch_31-61" x1="39.02" y1="42.26" x2="148.87" y2="217.68" xlink:href="#New_Gradient_Swatch_31"/><linearGradient id="New_Gradient_Swatch_31-62" x1="38.75" y1="42.43" x2="148.61" y2="217.84" xlink:href="#New_Gradient_Swatch_31"/><linearGradient id="New_Gradient_Swatch_31-63" x1="40.36" y1="41.42" x2="150.22" y2="216.83" xlink:href="#New_Gradient_Swatch_31"/><linearGradient id="New_Gradient_Swatch_31-64" x1="38.53" y1="42.57" x2="148.39" y2="217.98" xlink:href="#New_Gradient_Swatch_31"/><linearGradient id="New_Gradient_Swatch_31-65" x1="37.95" y1="42.93" x2="147.8" y2="218.35" xlink:href="#New_Gradient_Swatch_31"/><linearGradient id="New_Gradient_Swatch_31-66" x1="67.05" y1="24.71" x2="176.91" y2="200.12" xlink:href="#New_Gradient_Swatch_31"/><linearGradient id="New_Gradient_Swatch_31-67" x1="66.44" y1="25.09" x2="176.3" y2="200.5" xlink:href="#New_Gradient_Swatch_31"/><linearGradient id="New_Gradient_Swatch_31-68" x1="61.73" y1="28.04" x2="171.58" y2="203.46" xlink:href="#New_Gradient_Swatch_31"/><linearGradient id="New_Gradient_Swatch_31-69" x1="67.4" y1="24.49" x2="177.26" y2="199.9" xlink:href="#New_Gradient_Swatch_31"/><linearGradient id="New_Gradient_Swatch_31-70" x1="54.47" y1="32.59" x2="164.33" y2="208" xlink:href="#New_Gradient_Swatch_31"/><linearGradient id="New_Gradient_Swatch_31-71" x1="57.41" y1="30.74" x2="167.27" y2="206.16" xlink:href="#New_Gradient_Swatch_31"/><linearGradient id="New_Gradient_Swatch_31-72" x1="60.47" y1="28.83" x2="170.32" y2="204.24" xlink:href="#New_Gradient_Swatch_31"/><linearGradient id="New_Gradient_Swatch_31-73" x1="53.82" y1="32.99" x2="163.67" y2="208.41" xlink:href="#New_Gradient_Swatch_31"/><linearGradient id="New_Gradient_Swatch_31-74" x1="57.91" y1="30.43" x2="167.76" y2="205.85" xlink:href="#New_Gradient_Swatch_31"/><linearGradient id="New_Gradient_Swatch_31-75" x1="55.09" y1="32.2" x2="164.95" y2="207.61" xlink:href="#New_Gradient_Swatch_31"/><linearGradient id="New_Gradient_Swatch_31-76" x1="63.18" y1="27.13" x2="173.04" y2="202.54" xlink:href="#New_Gradient_Swatch_31"/><linearGradient id="New_Gradient_Swatch_31-77" x1="43.9" y1="39.21" x2="153.75" y2="214.62" xlink:href="#New_Gradient_Swatch_31"/><linearGradient id="New_Gradient_Swatch_31-78" x1="63.17" y1="27.14" x2="173.03" y2="202.55" xlink:href="#New_Gradient_Swatch_31"/><linearGradient id="New_Gradient_Swatch_31-79" x1="46.92" y1="37.32" x2="156.77" y2="212.73" xlink:href="#New_Gradient_Swatch_31"/><linearGradient id="New_Gradient_Swatch_31-80" x1="47.73" y1="36.81" x2="157.58" y2="212.22" xlink:href="#New_Gradient_Swatch_31"/><linearGradient id="New_Gradient_Swatch_31-81" x1="52.26" y1="33.97" x2="162.11" y2="209.39" xlink:href="#New_Gradient_Swatch_31"/><linearGradient id="New_Gradient_Swatch_31-82" x1="43.58" y1="39.41" x2="153.43" y2="214.82" xlink:href="#New_Gradient_Swatch_31"/><linearGradient id="New_Gradient_Swatch_31-83" x1="40.44" y1="41.37" x2="150.29" y2="216.79" xlink:href="#New_Gradient_Swatch_31"/><linearGradient id="New_Gradient_Swatch_31-84" x1="50" y1="35.38" x2="159.86" y2="210.8" xlink:href="#New_Gradient_Swatch_31"/><linearGradient id="New_Gradient_Swatch_31-85" x1="55.4" y1="32" x2="165.26" y2="207.42" xlink:href="#New_Gradient_Swatch_31"/><linearGradient id="New_Gradient_Swatch_31-86" x1="55.37" y1="32.02" x2="165.22" y2="207.44" xlink:href="#New_Gradient_Swatch_31"/><linearGradient id="New_Gradient_Swatch_31-87" x1="61.8" y1="28" x2="171.65" y2="203.41" xlink:href="#New_Gradient_Swatch_31"/></defs><g><path class="cls-9" d="M22.71,145.81c1.43,0,2.6,1.16,2.6,2.6v.18c0,40.88,33.26,74.15,74.15,74.15,14.97,0,29.39-4.44,41.71-12.84,1.19-.81,2.8-.5,3.61,.68,.81,1.18,.5,2.8-.68,3.61-13.18,8.99-28.62,13.74-44.64,13.74-43.75,0-79.34-35.59-79.34-79.34v-.18c0-1.43,1.16-2.6,2.6-2.6Z"/><path class="cls-5" d="M173.6,148.59v-38.37c0-23.97-11.68-46.58-31.24-60.48-1.17-.83-1.44-2.45-.61-3.62,.83-1.17,2.45-1.44,3.62-.61,20.93,14.88,33.43,39.07,33.43,64.71v38.37c0,19.12-6.9,37.59-19.42,52-.51,.59-1.23,.89-1.96,.89-.6,0-1.21-.21-1.7-.64-1.08-.94-1.2-2.58-.26-3.66,11.7-13.47,18.14-30.73,18.14-48.6Z"/><path class="cls-7" d="M99.45,30.88c9.58,0,18.96,1.69,27.85,5.03,1.34,.5,2.02,2,1.52,3.34-.5,1.34-2,2.02-3.34,1.52-8.31-3.12-17.07-4.7-26.03-4.7-40.88,0-74.15,33.26-74.15,74.15v18.34c0,1.43-1.16,2.6-2.6,2.6s-2.6-1.16-2.6-2.6v-18.34c0-43.75,35.59-79.34,79.34-79.34Z"/><path class="cls-8" d="M35.46,110.22c0-35.28,28.71-63.99,63.99-63.99,35.28,0,63.99,28.71,63.99,63.99v13.67c0,1.43-1.16,2.6-2.6,2.6s-2.6-1.16-2.6-2.6v-13.67c0-32.42-26.38-58.8-58.8-58.8-32.42,0-58.8,26.38-58.8,58.8v.14c0,1.43-1.16,2.6-2.6,2.6s-2.6-1.16-2.6-2.6v-.14Z"/><path class="cls-1" d="M160.85,145.92c1.43,0,2.6,1.16,2.6,2.6v.07c0,35.28-28.71,63.99-63.99,63.99-35.28,0-63.99-28.71-63.99-63.99v-13.6c0-1.43,1.16-2.6,2.6-2.6s2.6,1.16,2.6,2.6v13.6c0,32.42,26.38,58.8,58.8,58.8s58.8-26.38,58.8-58.8v-.07c0-1.43,1.16-2.6,2.6-2.6Z"/><path class="cls-2" d="M53.41,131.58c-1.43,0-2.6-1.16-2.6-2.6v-18.77c0-26.82,21.82-48.64,48.64-48.64,26.82,0,48.64,21.82,48.64,48.64v.05c0,1.43-1.16,2.57-2.6,2.57s-2.6-1.19-2.6-2.62c0-23.96-19.49-43.45-43.45-43.45-23.96,0-43.45,19.49-43.45,43.45v18.77c0,1.43-1.16,2.6-2.6,2.6Z"/><path class="cls-3" d="M148.09,148.59c0,26.82-21.82,48.64-48.64,48.64-26.82,0-48.64-21.82-48.64-48.64v-.1c0-1.43,1.16-2.6,2.6-2.6s2.6,1.16,2.6,2.6v.1c0,23.96,19.49,43.45,43.45,43.45,23.96,0,43.45-19.49,43.45-43.45v-18.82c0-1.43,1.16-2.6,2.6-2.6s2.6,1.16,2.6,2.6v18.82Z"/></g><g><polygon class="cls-6" points="74.58 126.08 74.61 115.38 66.32 119.41 74.58 126.08"/><polygon class="cls-4" points="62.32 128.24 65.27 135.52 73.6 127.93 62.32 128.24"/><polygon class="cls-62" points="74.9 131.1 74.68 128.56 68.42 134.21 74.9 131.1"/><polygon class="cls-63" points="65.47 120.24 62.38 127.04 73.53 126.75 65.47 120.24"/><polygon class="cls-66" points="79.5 134.79 75.92 139.07 80.43 137.71 79.5 134.79"/><polygon class="cls-80" points="75.98 132.37 75.09 138.22 78.84 133.77 75.98 132.37"/><polygon class="cls-78" points="66.51 136.47 73.72 139.36 74.77 132.47 66.51 136.47"/><polygon class="cls-79" points="80.52 134.06 81.35 136.72 83.35 133.61 80.52 134.06"/><polygon class="cls-76" points="84.68 124.11 84.9 117.57 80.17 123.8 84.68 124.11"/><polygon class="cls-77" points="86.08 116.87 85.86 123.92 92.46 121.7 86.08 116.87"/><polygon class="cls-74" points="84.46 116.17 76.11 115.13 79.22 123.1 84.46 116.17"/><polygon class="cls-75" points="93.93 133.39 98.12 133.39 97.51 130.34 93.93 133.39"/><polygon class="cls-85" points="75.79 117.54 75.76 126.12 78.33 124.11 75.79 117.54"/><polygon class="cls-87" points="91.83 129.77 92.65 132.91 96.31 129.83 91.83 129.77"/><polygon class="cls-86" points="96.85 128.66 93.83 123.29 91.92 128.59 96.85 128.66"/><polygon class="cls-82" points="90.81 128.21 92.72 122.84 86.49 124.94 90.81 128.21"/><polygon class="cls-83" points="93.8 134.56 96.12 136.72 97.67 134.56 93.8 134.56"/><polygon class="cls-65" points="98.24 139.58 98.24 135.77 96.91 137.61 98.24 139.58"/><polygon class="cls-84" points="98.85 168.74 98.85 160.01 92.43 157.62 98.85 168.74"/><polygon class="cls-81" points="98.85 158.77 98.85 147.9 92.08 156.23 98.85 158.77"/><polygon class="cls-64" points="100.06 160.01 100.06 168.74 106.47 157.62 100.06 160.01"/><polygon class="cls-61" points="100.06 147.9 100.06 158.77 106.82 156.23 100.06 147.9"/><polygon class="cls-56" points="80.78 146.03 83.32 149.08 85.19 144.82 80.78 146.03"/><polygon class="cls-55" points="85.09 143.43 83.16 138.98 80.71 141.33 85.09 143.43"/><polygon class="cls-48" points="86.37 142.54 84.71 140.63 85.92 143.36 86.37 142.54"/><polygon class="cls-49" points="80.43 142.09 80.46 145.3 84.75 144.12 80.43 142.09"/><polygon class="cls-52" points="89.26 141.62 89.99 140.76 88.68 139.61 89.26 141.62"/><polygon class="cls-47" points="87.95 139.93 87.35 142.09 88.56 142.03 87.95 139.93"/><polygon class="cls-51" points="87.45 138.85 84.14 138.73 86.65 141.68 87.45 138.85"/><polygon class="cls-53" points="90.3 141.62 89.67 142.31 90.49 142.85 90.3 141.62"/><polygon class="cls-50" points="87.54 146.89 88.24 149.94 89.22 147.52 87.54 146.89"/><polygon class="cls-54" points="89.92 147.94 88.81 150.67 92.05 149.91 89.92 147.94"/><polygon class="cls-37" points="84.17 149.62 87.6 150.67 86.78 147.05 84.17 149.62"/><polygon class="cls-36" points="96.15 146.98 96.82 146.06 95.39 145.43 96.15 146.98"/><polygon class="cls-35" points="86.49 146.22 85.92 145.14 84.62 148.06 86.49 146.22"/><polygon class="cls-38" points="93.77 146.32 95.26 146.98 94.5 145.36 93.77 146.32"/><polygon class="cls-39" points="93.32 149.3 95.29 147.84 93.48 147.05 93.32 149.3"/><polygon class="cls-40" points="92.53 149.3 92.69 146.98 90.56 147.49 92.53 149.3"/><polygon class="cls-34" points="96.66 144.35 95.64 144.7 96.85 145.24 96.66 144.35"/><polygon class="cls-41" points="97.99 143.65 97.39 144 97.55 144.63 97.99 143.65"/><polygon class="cls-42" points="115.59 149.08 118.16 146.03 113.71 144.82 115.59 149.08"/><polygon class="cls-43" points="115.75 138.98 113.81 143.43 118.19 141.33 115.75 138.98"/><polygon class="cls-20" points="112.54 142.54 112.98 143.36 114.19 140.63 112.54 142.54"/><polygon class="cls-19" points="118.45 145.3 118.48 142.09 114.16 144.12 118.45 145.3"/><polygon class="cls-15" points="110.22 139.61 108.92 140.76 109.65 141.62 110.22 139.61"/><polygon class="cls-13" points="110.95 139.93 110.35 142.03 111.55 142.09 110.95 139.93"/><polygon class="cls-18" points="114.76 138.73 111.46 138.85 112.25 141.68 114.76 138.73"/><polygon class="cls-17" points="108.41 142.85 109.23 142.31 108.6 141.62 108.41 142.85"/><polygon class="cls-11" points="109.68 147.52 110.66 149.94 111.36 146.89 109.68 147.52"/><polygon class="cls-12" points="106.85 149.91 110.09 150.67 108.98 147.94 106.85 149.91"/><polygon class="cls-14" points="111.3 150.67 114.73 149.62 112.13 147.05 111.3 150.67"/><polygon class="cls-16" points="103.52 145.43 102.09 146.06 102.76 146.98 103.52 145.43"/><polygon class="cls-32" points="114.29 148.06 112.98 145.14 112.41 146.22 114.29 148.06"/><polygon class="cls-33" points="103.64 146.98 105.14 146.32 104.41 145.36 103.64 146.98"/><polygon class="cls-23" points="105.58 149.3 105.42 147.05 103.61 147.84 105.58 149.3"/><polygon class="cls-26" points="108.35 147.49 106.22 146.98 106.38 149.3 108.35 147.49"/><polygon class="cls-27" points="102.25 144.35 102.06 145.24 103.26 144.7 102.25 144.35"/><polygon class="cls-25" points="101.52 144 100.91 143.65 101.36 144.63 101.52 144"/><polygon class="cls-21" points="132.58 119.41 124.29 115.38 124.32 126.08 132.58 119.41"/><polygon class="cls-10" points="125.31 127.93 133.63 135.52 136.58 128.24 125.31 127.93"/><polygon class="cls-24" points="124.23 128.56 124 131.1 130.48 134.21 124.23 128.56"/><polygon class="cls-22" points="136.52 127.04 133.44 120.24 125.37 126.75 136.52 127.04"/><polygon class="cls-28" points="122.99 139.07 119.4 134.79 118.48 137.71 122.99 139.07"/><polygon class="cls-70" points="120.07 133.77 123.81 138.22 122.92 132.37 120.07 133.77"/><polygon class="cls-67" points="125.18 139.36 132.39 136.47 124.13 132.47 125.18 139.36"/><polygon class="cls-57" points="115.56 133.61 117.56 136.72 118.38 134.06 115.56 133.61"/><polygon class="cls-69" points="118.73 123.8 114 117.57 114.22 124.11 118.73 123.8"/><polygon class="cls-72" points="113.05 123.92 112.82 116.87 106.44 121.7 113.05 123.92"/><polygon class="cls-73" points="114.44 116.17 119.68 123.1 122.8 115.13 114.44 116.17"/><polygon class="cls-68" points="101.39 130.34 100.79 133.39 104.98 133.39 101.39 130.34"/><polygon class="cls-71" points="123.15 126.12 123.12 117.54 120.57 124.11 123.15 126.12"/><polygon class="cls-58" points="102.6 129.83 106.25 132.91 107.07 129.77 102.6 129.83"/><polygon class="cls-46" points="105.07 123.29 102.06 128.66 106.98 128.59 105.07 123.29"/><polygon class="cls-30" points="106.19 122.84 108.09 128.21 112.41 124.94 106.19 122.84"/><polygon class="cls-29" points="101.23 134.56 102.79 136.72 105.11 134.56 101.23 134.56"/><polygon class="cls-44" points="100.66 135.77 100.66 139.58 101.99 137.61 100.66 135.77"/><polygon class="cls-45" points="98.85 126.31 98.85 100.45 88.3 97.15 98.85 126.31"/><polygon class="cls-59" points="100.06 100.45 100.06 126.31 110.6 97.15 100.06 100.45"/><path class="cls-60" d="M98.85,99.21v-9.15c-4.32,.19-8.16,2.29-10.61,5.84l10.61,3.3Z"/><path class="cls-31" d="M100.06,90.06v9.15l10.61-3.3c-2.45-3.56-6.29-5.69-10.61-5.84Z"/></g></svg>