<?xml version="1.0" encoding="UTF-8"?><svg id="Calque_1" xmlns="http://www.w3.org/2000/svg" viewBox="0 0 36 40"><defs><style>.cls-1{fill:#fff;}</style></defs><path class="cls-1" d="M18,39.09c-1.1,0-2.19-.3-3.21-.89L3.85,31.81c-1.98-1.14-3.21-3.28-3.21-5.56V13.67c0-2.29,1.23-4.42,3.21-5.56L14.81,1.71c2.03-1.07,4.35-1.07,6.38,0h.02s10.93,6.3,10.93,6.3c1.98,1.15,3.21,3.28,3.21,5.56v12.68c0,2.29-1.23,4.42-3.21,5.56l-10.93,6.38c-1.02,.59-2.12,.89-3.21,.89ZM15.4,2.79L4.47,9.17c-1.6,.93-2.6,2.65-2.6,4.5v12.58c0,1.85,.99,3.57,2.6,4.5l10.94,6.39c1.65,.95,3.54,.95,5.19,0l10.93-6.38c1.6-.93,2.6-2.65,2.6-4.5V13.58c0-1.85-.99-3.57-2.6-4.5L20.61,2.8c-1.66-.87-3.55-.87-5.21,0Z"/><g><polygon class="cls-1" points="10.17 18.81 10.18 15.44 7.57 16.71 10.17 18.81"/><polygon class="cls-1" points="6.31 19.49 7.24 21.78 9.86 19.39 6.31 19.49"/><polygon class="cls-1" points="10.27 20.39 10.2 19.59 8.23 21.37 10.27 20.39"/><polygon class="cls-1" points="7.3 16.97 6.33 19.11 9.84 19.02 7.3 16.97"/><polygon class="cls-1" points="11.72 21.55 10.59 22.9 12.01 22.47 11.72 21.55"/><polygon class="cls-1" points="10.61 20.79 10.33 22.63 11.51 21.23 10.61 20.79"/><polygon class="cls-1" points="7.63 22.08 9.9 22.99 10.23 20.82 7.63 22.08"/><polygon class="cls-1" points="12.04 21.32 12.3 22.16 12.93 21.18 12.04 21.32"/><polygon class="cls-1" points="13.35 18.19 13.42 16.13 11.93 18.09 13.35 18.19"/><polygon class="cls-1" points="13.79 15.91 13.72 18.13 15.8 17.43 13.79 15.91"/><polygon class="cls-1" points="13.28 15.69 10.65 15.36 11.63 17.87 13.28 15.69"/><polygon class="cls-1" points="16.26 21.11 17.58 21.11 17.39 20.15 16.26 21.11"/><polygon class="cls-1" points="10.55 16.12 10.54 18.82 11.35 18.19 10.55 16.12"/><polygon class="cls-1" points="15.6 19.97 15.86 20.96 17.01 19.99 15.6 19.97"/><polygon class="cls-1" points="17.18 19.62 16.23 17.93 15.63 19.6 17.18 19.62"/><polygon class="cls-1" points="15.28 19.48 15.88 17.79 13.92 18.45 15.28 19.48"/><polygon class="cls-1" points="16.22 21.48 16.95 22.16 17.44 21.48 16.22 21.48"/><polygon class="cls-1" points="17.62 23.06 17.62 21.86 17.2 22.44 17.62 23.06"/><polygon class="cls-1" points="17.81 32.24 17.81 29.49 15.79 28.74 17.81 32.24"/><polygon class="cls-1" points="17.81 29.1 17.81 25.68 15.68 28.3 17.81 29.1"/><polygon class="cls-1" points="18.19 29.49 18.19 32.24 20.21 28.74 18.19 29.49"/><polygon class="cls-1" points="18.19 25.68 18.19 29.1 20.32 28.3 18.19 25.68"/><polygon class="cls-1" points="12.12 25.09 12.92 26.05 13.51 24.71 12.12 25.09"/><polygon class="cls-1" points="13.48 24.27 12.87 22.87 12.1 23.61 13.48 24.27"/><polygon class="cls-1" points="13.88 23.99 13.36 23.39 13.74 24.25 13.88 23.99"/><polygon class="cls-1" points="12.01 23.85 12.02 24.86 13.37 24.49 12.01 23.85"/><polygon class="cls-1" points="14.79 23.7 15.02 23.43 14.61 23.07 14.79 23.7"/><polygon class="cls-1" points="14.38 23.17 14.19 23.85 14.57 23.83 14.38 23.17"/><polygon class="cls-1" points="14.22 22.83 13.18 22.79 13.97 23.72 14.22 22.83"/><polygon class="cls-1" points="15.12 23.7 14.92 23.92 15.18 24.09 15.12 23.7"/><polygon class="cls-1" points="14.25 25.36 14.47 26.32 14.78 25.56 14.25 25.36"/><polygon class="cls-1" points="15 25.69 14.65 26.55 15.67 26.31 15 25.69"/><polygon class="cls-1" points="13.19 26.22 14.27 26.55 14.01 25.41 13.19 26.22"/><polygon class="cls-1" points="16.96 25.39 17.17 25.1 16.72 24.9 16.96 25.39"/><polygon class="cls-1" points="13.92 25.15 13.74 24.81 13.33 25.73 13.92 25.15"/><polygon class="cls-1" points="16.21 25.18 16.68 25.39 16.44 24.88 16.21 25.18"/><polygon class="cls-1" points="16.07 26.12 16.69 25.66 16.12 25.41 16.07 26.12"/><polygon class="cls-1" points="15.82 26.12 15.87 25.39 15.2 25.55 15.82 26.12"/><polygon class="cls-1" points="17.12 24.56 16.8 24.67 17.18 24.84 17.12 24.56"/><polygon class="cls-1" points="17.54 24.34 17.35 24.45 17.4 24.65 17.54 24.34"/><polygon class="cls-1" points="23.08 26.05 23.89 25.09 22.49 24.71 23.08 26.05"/><polygon class="cls-1" points="23.13 22.87 22.52 24.27 23.9 23.61 23.13 22.87"/><polygon class="cls-1" points="22.12 23.99 22.26 24.25 22.64 23.39 22.12 23.99"/><polygon class="cls-1" points="23.98 24.86 23.99 23.85 22.63 24.49 23.98 24.86"/><polygon class="cls-1" points="21.39 23.07 20.98 23.43 21.21 23.7 21.39 23.07"/><polygon class="cls-1" points="21.62 23.17 21.43 23.83 21.81 23.85 21.62 23.17"/><polygon class="cls-1" points="22.82 22.79 21.78 22.83 22.03 23.72 22.82 22.79"/><polygon class="cls-1" points="20.82 24.09 21.08 23.92 20.88 23.7 20.82 24.09"/><polygon class="cls-1" points="21.22 25.56 21.53 26.32 21.75 25.36 21.22 25.56"/><polygon class="cls-1" points="20.33 26.31 21.35 26.55 21 25.69 20.33 26.31"/><polygon class="cls-1" points="21.73 26.55 22.81 26.22 21.99 25.41 21.73 26.55"/><polygon class="cls-1" points="19.28 24.9 18.83 25.1 19.04 25.39 19.28 24.9"/><polygon class="cls-1" points="22.67 25.73 22.26 24.81 22.08 25.15 22.67 25.73"/><polygon class="cls-1" points="19.32 25.39 19.79 25.18 19.56 24.88 19.32 25.39"/><polygon class="cls-1" points="19.93 26.12 19.88 25.41 19.31 25.66 19.93 26.12"/><polygon class="cls-1" points="20.8 25.55 20.13 25.39 20.18 26.12 20.8 25.55"/><polygon class="cls-1" points="18.88 24.56 18.82 24.84 19.2 24.67 18.88 24.56"/><polygon class="cls-1" points="18.65 24.45 18.46 24.34 18.6 24.65 18.65 24.45"/><polygon class="cls-1" points="28.43 16.71 25.82 15.44 25.83 18.81 28.43 16.71"/><polygon class="cls-1" points="26.14 19.39 28.76 21.78 29.69 19.49 26.14 19.39"/><polygon class="cls-1" points="25.8 19.59 25.73 20.39 27.77 21.37 25.8 19.59"/><polygon class="cls-1" points="29.67 19.11 28.7 16.97 26.16 19.02 29.67 19.11"/><polygon class="cls-1" points="25.41 22.9 24.28 21.55 23.99 22.47 25.41 22.9"/><polygon class="cls-1" points="24.49 21.23 25.67 22.63 25.39 20.79 24.49 21.23"/><polygon class="cls-1" points="26.1 22.99 28.37 22.08 25.77 20.82 26.1 22.99"/><polygon class="cls-1" points="23.07 21.18 23.7 22.16 23.96 21.32 23.07 21.18"/><polygon class="cls-1" points="24.07 18.09 22.58 16.13 22.65 18.19 24.07 18.09"/><polygon class="cls-1" points="22.28 18.13 22.21 15.91 20.2 17.43 22.28 18.13"/><polygon class="cls-1" points="22.72 15.69 24.37 17.87 25.35 15.36 22.72 15.69"/><polygon class="cls-1" points="18.61 20.15 18.42 21.11 19.74 21.11 18.61 20.15"/><polygon class="cls-1" points="25.46 18.82 25.45 16.12 24.65 18.19 25.46 18.82"/><polygon class="cls-1" points="18.99 19.99 20.14 20.96 20.4 19.97 18.99 19.99"/><polygon class="cls-1" points="19.77 17.93 18.82 19.62 20.37 19.6 19.77 17.93"/><polygon class="cls-1" points="20.12 17.79 20.72 19.48 22.08 18.45 20.12 17.79"/><polygon class="cls-1" points="18.56 21.48 19.05 22.16 19.78 21.48 18.56 21.48"/><polygon class="cls-1" points="18.38 21.86 18.38 23.06 18.8 22.44 18.38 21.86"/><polygon class="cls-1" points="17.81 18.88 17.81 10.74 14.49 9.7 17.81 18.88"/><polygon class="cls-1" points="18.19 10.74 18.19 18.88 21.51 9.7 18.19 10.74"/><path class="cls-1" d="M17.81,10.35v-2.88c-1.36,.06-2.57,.72-3.34,1.84l3.34,1.04Z"/><path class="cls-1" d="M18.19,7.47v2.88l3.34-1.04c-.77-1.12-1.98-1.79-3.34-1.84Z"/></g></svg>