<svg id="Calque_1" data-name="Calque 1" xmlns="http://www.w3.org/2000/svg" xmlns:xlink="http://www.w3.org/1999/xlink" viewBox="0 0 200 200"><defs><style>.cls-1{fill:#170299;}.cls-2{fill:url(#Dégradé_sans_nom);}.cls-3{fill:#eac654;}.cls-4{fill:#c8992e;}.cls-5{fill:#f9df7b;}.cls-6{fill:#b57e10;}</style><linearGradient id="Dégradé_sans_nom" x1="52.38" y1="486.81" x2="148.53" y2="629.62" gradientTransform="translate(0 -458)" gradientUnits="userSpaceOnUse"><stop offset="0" stop-color="#fff" stop-opacity="0.5"/><stop offset="1" stop-color="#fff" stop-opacity="0"/></linearGradient></defs><path class="cls-1" d="M115.72,3.93,174.92,38a30.85,30.85,0,0,1,15.72,27.25v68.63a31.45,31.45,0,0,1-15.72,27.24l-59.2,34.58a30.76,30.76,0,0,1-31.44,0L25.08,161.1A30.83,30.83,0,0,1,9.36,133.86V65.75A31.45,31.45,0,0,1,25.08,38.51L84.28,3.93A33.4,33.4,0,0,1,115.72,3.93Z"/><path class="cls-2" d="M115.72,3.93,174.92,38a31.46,31.46,0,0,1,15.72,27.25v68.63a31.45,31.45,0,0,1-15.72,27.24l-59.2,34.58a30.76,30.76,0,0,1-31.44,0L25.08,161.1A31.45,31.45,0,0,1,9.36,133.86V65.75A31.45,31.45,0,0,1,25.08,38.51L84.28,3.93A33.4,33.4,0,0,1,115.72,3.93Z"/><polygon class="cls-3" points="43.42 81.99 59.66 95.09 60.18 73.61 43.42 81.99"/><polygon class="cls-4" points="43.42 110.28 59.66 95.09 37.13 95.61 43.42 110.28"/><polygon class="cls-5" points="60.18 101.9 59.66 95.09 43.42 110.28 60.18 101.9"/><polygon class="cls-6" points="37.13 95.61 59.66 95.09 43.42 81.99 37.13 95.61"/><polygon class="cls-4" points="69.61 112.9 67.52 105.57 58.09 116.05 69.61 112.9"/><polygon class="cls-6" points="67.52 105.57 60.18 101.9 58.09 116.05 67.52 105.57"/><polygon class="cls-3" points="58.09 116.05 60.18 101.9 43.42 110.28 58.09 116.05"/><polygon class="cls-5" points="75.38 104 67.52 105.57 69.61 112.9 75.38 104"/><polygon class="cls-6" points="76.42 90.9 76.95 75.7 66.47 89.85 76.42 90.9"/><polygon class="cls-3" points="90.57 86.18 76.95 75.7 76.42 90.9 90.57 86.18"/><polygon class="cls-4" points="76.95 75.7 60.18 73.61 66.47 89.85 76.95 75.7"/><polygon class="cls-3" points="98.95 106.09 97.38 98.23 87.95 106.09 98.95 106.09"/><polygon class="cls-5" points="60.18 73.61 59.66 95.09 66.47 89.85 60.18 73.61"/><polygon class="cls-6" points="87.95 106.09 97.38 98.23 86.38 98.23 87.95 106.09"/><polygon class="cls-4" points="97.38 98.23 90.57 86.18 86.38 98.23 97.38 98.23"/><polygon class="cls-5" points="86.38 98.23 90.57 86.18 76.42 90.9 86.38 98.23"/><polygon class="cls-5" points="87.95 106.09 94.76 111.85 98.95 106.09 87.95 106.09"/><polygon class="cls-4" points="94.76 111.85 98.95 118.66 98.95 106.09 94.76 111.85"/><polygon class="cls-3" points="100 166.86 100 148.53 86.38 143.29 100 166.86"/><polygon class="cls-5" points="86.38 143.29 100 148.53 100 126.52 86.38 143.29"/><polygon class="cls-6" points="100 166.86 100 148.53 113.62 143.29 100 166.86"/><polygon class="cls-4" points="113.62 143.29 100 148.53 100 126.52 113.62 143.29"/><polygon class="cls-3" points="68.04 125.47 77.47 122.86 73.28 132.29 68.04 125.47"/><polygon class="cls-4" points="73.28 113.42 77.47 122.86 68.04 118.14 73.28 113.42"/><polygon class="cls-5" points="79.04 120.24 77.47 122.86 73.28 113.42 79.04 120.24"/><polygon class="cls-6" points="68.04 118.14 77.47 122.86 68.04 125.47 68.04 118.14"/><polygon class="cls-4" points="85.33 117.09 82.71 120.24 81.14 113.42 85.33 117.09"/><polygon class="cls-6" points="82.71 120.24 79.04 120.24 81.14 113.42 82.71 120.24"/><polygon class="cls-3" points="81.14 113.42 79.04 120.24 73.28 113.42 81.14 113.42"/><polygon class="cls-5" points="85.86 121.81 82.71 120.24 85.33 117.09 85.86 121.81"/><polygon class="cls-6" points="83.76 128.09 81.14 134.38 79.57 126.52 83.76 128.09"/><polygon class="cls-3" points="89 132.81 81.14 134.38 83.76 128.09 89 132.81"/><polygon class="cls-4" points="81.14 134.38 73.28 132.29 79.57 126.52 81.14 134.38"/><polygon class="cls-3" points="96.86 126 94.24 128.62 92.14 123.9 96.86 126"/><polygon class="cls-5" points="73.28 132.29 77.47 122.86 79.57 126.52 73.28 132.29"/><polygon class="cls-6" points="92.14 123.9 94.24 128.62 89.52 126.52 92.14 123.9"/><polygon class="cls-4" points="94.24 128.62 89 132.81 89.52 126.52 94.24 128.62"/><polygon class="cls-5" points="89.52 126.52 89 132.81 83.76 128.09 89.52 126.52"/><polygon class="cls-5" points="92.14 123.9 95.81 122.33 96.86 126 92.14 123.9"/><polygon class="cls-4" points="95.81 122.33 98.95 120.24 96.86 126 95.81 122.33"/><polygon class="cls-3" points="131.96 125.47 122.53 122.86 126.19 132.29 131.96 125.47"/><polygon class="cls-4" points="126.72 113.42 122.53 122.86 131.96 118.14 126.72 113.42"/><polygon class="cls-5" points="120.96 120.24 122.53 122.86 126.72 113.42 120.96 120.24"/><polygon class="cls-6" points="131.96 118.14 122.53 122.86 131.96 125.47 131.96 118.14"/><polygon class="cls-4" points="114.67 117.09 117.29 120.24 118.86 113.42 114.67 117.09"/><polygon class="cls-6" points="117.29 120.24 120.96 120.24 118.86 113.42 117.29 120.24"/><polygon class="cls-3" points="118.86 113.42 120.96 120.24 126.72 113.42 118.86 113.42"/><polygon class="cls-5" points="114.14 121.81 117.29 120.24 114.67 117.09 114.14 121.81"/><polygon class="cls-6" points="116.24 128.09 118.86 134.38 120.43 126.52 116.24 128.09"/><polygon class="cls-3" points="111 132.81 118.86 134.38 116.24 128.09 111 132.81"/><polygon class="cls-4" points="118.86 134.38 126.19 132.29 120.43 126.52 118.86 134.38"/><polygon class="cls-3" points="103.14 126 105.76 128.62 107.86 123.9 103.14 126"/><polygon class="cls-5" points="126.19 132.29 122.53 122.86 120.43 126.52 126.19 132.29"/><polygon class="cls-6" points="107.86 123.9 105.76 128.62 110.48 126.52 107.86 123.9"/><polygon class="cls-4" points="105.76 128.62 111 132.81 110.48 126.52 105.76 128.62"/><polygon class="cls-5" points="110.48 126.52 111 132.81 116.24 128.09 110.48 126.52"/><polygon class="cls-5" points="107.86 123.9 104.19 122.33 103.14 126 107.86 123.9"/><polygon class="cls-4" points="104.19 122.33 101.05 120.24 103.14 126 104.19 122.33"/><polygon class="cls-3" points="156.58 81.99 140.34 95.09 139.82 73.61 156.58 81.99"/><polygon class="cls-4" points="157.1 110.28 140.34 95.09 162.87 95.61 157.1 110.28"/><polygon class="cls-5" points="139.29 101.9 140.34 95.09 157.1 110.28 139.29 101.9"/><polygon class="cls-6" points="162.87 95.61 140.34 95.09 156.58 81.99 162.87 95.61"/><polygon class="cls-4" points="130.39 112.9 132.48 105.57 141.91 116.05 130.39 112.9"/><polygon class="cls-6" points="132.48 105.57 139.29 101.9 141.91 116.05 132.48 105.57"/><polygon class="cls-3" points="141.91 116.05 139.29 101.9 157.1 110.28 141.91 116.05"/><polygon class="cls-5" points="124.62 104 132.48 105.57 130.39 112.9 124.62 104"/><polygon class="cls-6" points="123.58 90.9 123.05 75.7 133.53 89.85 123.58 90.9"/><polygon class="cls-3" points="109.43 86.18 123.05 75.7 123.58 90.9 109.43 86.18"/><polygon class="cls-4" points="123.05 75.7 139.82 73.61 133.53 89.85 123.05 75.7"/><polygon class="cls-3" points="101.05 106.09 102.62 98.23 111.53 106.09 101.05 106.09"/><polygon class="cls-5" points="139.82 73.61 140.34 95.09 133.53 89.85 139.82 73.61"/><polygon class="cls-6" points="111.53 106.09 102.62 98.23 113.62 98.23 111.53 106.09"/><polygon class="cls-4" points="102.62 98.23 109.43 86.18 113.62 98.23 102.62 98.23"/><polygon class="cls-5" points="113.62 98.23 109.43 86.18 123.58 90.9 113.62 98.23"/><polygon class="cls-5" points="111.53 106.09 105.24 111.85 101.05 106.09 111.53 106.09"/><polygon class="cls-4" points="105.24 111.85 101.05 118.66 101.05 106.09 105.24 111.85"/><polygon class="cls-6" points="80.09 43.75 100 98.76 100 50.03 80.09 43.75"/><polygon class="cls-3" points="119.91 43.75 100 98.76 100 50.03 119.91 43.75"/><path class="cls-4" d="M80.09,43.75h0L100,50V32.74C91.62,32.22,84.28,36.94,80.09,43.75Z"/><path class="cls-5" d="M100,32.74V50l19.91-6.28h0C115.72,36.94,108.38,32.22,100,32.74Z"/></svg>